# AST/ASF file generated using VICON BodyLanguage
# -----------------------------------------------
:version 1.10
:name VICON
:units
  mass 1.0
  length 0.45
  angle deg
:documentation
   .ast/.asf automatically generated from VICON data using
   VICON BodyBuilder and BodyLanguage model FoxedUp or BRILLIANT.MOD
:root
   order TX TY TZ RX RY RZ
   axis XYZ
   position 0 0 0  
   orientation 0 0 0 
:bonedata
  begin
     id 1 
     name lhipjoint
     direction 0.567725 -0.736092 0.368589 
     length 2.42353 
     axis 0 0 0  XYZ
  end
  begin
     id 2 
     name lfemur
     direction 0.34202 -0.939693 0  
     length 7.24894  
     axis 0 0 20  XYZ
    dof rx ry rz
    limits (-160.0 20.0)
           (-70.0 70.0)
           (-60.0 70.0)
  end
  begin
     id 3 
     name ltibia
     direction 0.34202 -0.939693 0   
     length 7.6997   
     axis 0 0 20   XYZ
    dof rx
    limits (-10.0 170.0)
  end
  begin
     id 4 
     name lfoot
     direction 0.100767 -0.276854 0.955614   
     length 2.37556   
     axis -90 7.62852e-016 20   XYZ
    dof rx rz
    limits (-45.0 90.0)
           (-70.0 20.0)
  end
  begin
     id 5 
     name ltoes
     direction 1.53592e-011 -4.21894e-011 1   
     length 1.18363   
     axis -90 7.62852e-016 20   XYZ
    dof rx
    limits (-90.0 20.0)
  end
  begin
     id 6 
     name rhipjoint
     direction -0.556459 -0.742938 0.372017   
     length 2.4012  
     axis 0 0 0  XYZ 
  end
  begin
     id 7 
     name rfemur
     direction -0.34202 -0.939693 0   
     length 7.5119   
     axis 0 0 -20   XYZ
    dof rx ry rz
    limits (-160.0 20.0)
           (-70.0 70.0)
           (-70.0 60.0)
  end
  begin
     id 8 
     name rtibia
     direction -0.34202 -0.939693 0   
     length 7.50155   
     axis 0 0 -20   XYZ
    dof rx
    limits (-10.0 170.0)
 end
 begin
     id 9 
     name rfoot
     direction -0.118427 -0.325376 0.938139   
     length 2.32487  
     axis -90 -7.62852e-016 -20   XYZ
    dof rx rz
    limits (-45.0 90.0)
           (-20.0 70.0)
  end
  begin
     id 10 
     name rtoes
     direction -1.53525e-011 -4.21868e-011 1   
     length 1.15233   
     axis -90 -7.62852e-016 -20   XYZ
    dof rx
    limits (-90.0 20.0)
  end
  begin
     id 11 
     name lowerback
     direction 0.0287568 0.999577 -0.00434502   
     length 2.15243   
     axis 0 0 0   XYZ
    dof rx ry rz
    limits (-20.0 45.0)
           (-30.0 30.0)
           (-30.0 30.0)
  end
  begin
     id 12 
     name upperback
     direction 0.0294009 0.99956 0.00404628   
     length 2.15427   
     axis 0 0 0   XYZ
    dof rx ry rz
    limits (-20.0 45.0)
           (-30.0 30.0)
           (-30.0 30.0)
  end
  begin
     id 13 
     name thorax
     direction 0.0151014 0.999868 0.0059419   
     length 2.14898   
     axis 0 0 0   XYZ
    dof rx ry rz
    limits (-20.0 45.0)
           (-30.0 30.0)
           (-30.0 30.0)
  end
  begin
     id 14 
     name lowerneck
     direction -0.0249197 0.989906 0.139515   
     length 1.6861   
     axis 0 0 0   XYZ
    dof rx ry rz
    limits (-20.0 45.0)
           (-30.0 30.0)
           (-30.0 30.0)
  end
  begin
     id 15 
     name upperneck
     direction 0.0438463 0.988795 -0.142693   
     length 1.71276   
     axis 0 0 0   XYZ
    dof rx ry rz
    limits (-20.0 45.0)
           (-30.0 30.0)
           (-30.0 30.0)
  end
  begin
     id 16
     name head
     direction 0.0148499 0.997845 -0.0639186  
     length 1.7209  
     axis 0 0 0   XYZ
    dof rx ry rz
    limits (-20.0 45.0)
           (-30.0 30.0)
           (-30.0 30.0)
  end
  begin
     id 17 
     name lclavicle
     direction 0.940298 0.323464 -0.105876  
     length 3.9048  
     axis 0 0 0   XYZ
    dof ry rz
    limits (-20.0 10.0)
           (0.0 20.0)
  end
  begin
     id 18 
     name lhumerus
     direction 1 -4.48954e-011 -4.9675e-028   
     length 4.6851   
     axis 180 -30 -90   XYZ
    dof rx ry rz
    limits (-60.0 90.0)
           (-90.0 90.0)
           (-90.0 90.0)
  end
  begin
     id 19
     name lradius
     direction 1 -4.48992e-011 -1.03359e-026   
     length 3.39626   
     axis 180 -30 -90   XYZ
    dof rx
    limits (-10.0 170.0)
  end
  begin
     id 20
     name lwrist
     direction 1 -4.48906e-011 -1.67336e-026   
     length 1.69813   
     axis 9.90442e-015 90 90   XYZ
    dof ry
    limits (-180.0 0.0)
 end
  begin
     id 21 
     name lhand
     direction 1 -4.49006e-011 -3.34673e-026   
     length 0.486078   
     axis 2.1355e-014 90 90   XYZ
    dof rx rz
    limits (-90.0 90.0)
           (-45.0 45.0)
  end
  begin
     id 22 
     name lfingers
     direction 1 -4.48992e-011 -6.69345e-026   
     length 0.391889   
     axis 4.27099e-014 90 90   XYZ
    dof rx
    limits (0.0 90.0)
  end
  begin
     id 23
     name lthumb
     direction 0.707107 -6.34926e-011 0.707107   
     length 0.562676   
     axis -90 45 2.85299e-015   XYZ
    dof rx rz
    limits (-45.0 45.0)
           (-45.0 45.0)
  end
  begin
     id 24 
     name rclavicle
     direction -0.882459 0.414895 -0.221648   
     length 3.44646  
     axis 0 0 0   XYZ 
    dof ry rz
    limits (-10.0 20.0)
           (-20.0 0.0)
  end
  begin
     id 25 
     name rhumerus
     direction -1 -4.48962e-011 -2.37984e-027  
     length 5.55576   
     axis 180 30 90   XYZ
    dof rx ry rz
    limits (-90.0 60.0)
           (-90.0 90.0)
           (-90.0 90.0)
  end
  begin
     id 26 
     name rradius
     direction -1 -4.48982e-011 -6.86791e-027   
     length 3.32774   
     axis 180 30 90   XYZ
    dof rx
    limits (-10.0 170.0)
  end
  begin
     id 27 
     name rwrist
     direction -1 -4.48961e-011 -1.67336e-026   
     length 1.66387   
     axis 9.90442e-015 -90 -90   XYZ
    dof ry
    limits (-180.0 0.0)
  end
  begin
     id 28
     name rhand
     direction -1 -4.4897e-011 -3.34673e-026   
     length 0.507628   
     axis 2.1355e-014 -90 -90   XYZ
    dof rx rz
    limits (-90.0 90.0)
           (-45.0 45.0)
  end
  begin
     id 29
     name rfingers
     direction -1 -4.48854e-011 -6.69345e-026   
     length 0.409263   
     axis 4.27099e-014 -90 -90   XYZ
    dof rx
    limits (0.0 90.0)
  end
  begin
     id 30
     name rthumb
     direction -0.707107 -6.34913e-011 0.707107   
     length 0.587622   
     axis -90 -45 -2.85299e-015   XYZ
    dof rx rz
    limits (-45.0 45.0)
           (-45.0 45.0)
  end
:hierarchy
  begin
    root lhipjoint rhipjoint lowerback
    lhipjoint lfemur
    lfemur ltibia
    ltibia lfoot
    lfoot ltoes
    rhipjoint rfemur
    rfemur rtibia
    rtibia rfoot
    rfoot rtoes
    lowerback upperback
    upperback thorax
    thorax lowerneck lclavicle rclavicle
    lowerneck upperneck
    upperneck head
    lclavicle lhumerus
    lhumerus lradius
    lradius lwrist
    lwrist lhand lthumb
    lhand lfingers
    rclavicle rhumerus
    rhumerus rradius
    rradius rwrist
    rwrist rhand rthumb
    rhand rfingers
  end

#!OML:ASF E:\motion texture\Top Level 1\Subject 1\Session 1\male.ASF
:FULLY-SPECIFIED
:DEGREES
16
root 31.6014 17.382 6.42435 -154.882 -87.5131 162.603
lowerback 0.857911 -1.30401 -1.51127
upperback -0.505299 -1.76739 3.59662
thorax -0.840813 -0.882323 4.58004
lowerneck -11.0773 -4.45766 -4.86826
upperneck 8.60189 -5.91137 5.96866
head 4.7128 -2.71382 2.19442
rclavicle 3.37934e-015 1.90833e-014
rhumerus -17.0306 17.4584 -78.3632
rradius 68.1527
rwrist 0.850504
rhand -10.3995 -19.0548
rfingers 7.12502
rthumb 15.5989 -48.4458
lclavicle 3.37934e-015 1.90833e-014
lhumerus -13.2889 -23.5661 99.9115
lradius 60.5414
lwrist 44.3194
lhand -14.1929 30.5095
lfingers 7.12502
lthumb 11.9431 60.1488
rfemur -36.4331 -1.70478 14.3467
rtibia 16.783
rfoot -5.61475 -11.5029
rtoes -4.66665
lfemur 0.668673 -3.21431 -23.7752
ltibia 16.5932
lfoot -18.0119 6.46505
ltoes -12.2386
17
root 31.4572 17.3728 6.4011 -151.754 -87.7248 159.505
lowerback 1.12491 -1.44102 -1.63151
upperback -0.621796 -1.94998 3.69515
thorax -1.08663 -0.967737 4.7638
lowerneck -11.1299 -4.45052 -4.87072
upperneck 8.61269 -5.88757 5.87207
head 4.72046 -2.70662 2.1658
rclavicle -5.11871e-014 5.1684e-014
rhumerus -18.9023 16.6569 -78.6818
rradius 68.7827
rwrist 0.703997
rhand -10.5698 -19.4448
rfingers 7.12502
rthumb 15.4349 -48.8486
lclavicle -5.11871e-014 5.1684e-014
lhumerus -14.9591 -24.9609 100.842
lradius 61.6179
lwrist 43.9111
lhand -14.4319 30.6244
lfingers 7.12502
lthumb 11.7126 60.277
rfemur -36.5507 -1.7421 14.4543
rtibia 17.9598
rfoot -5.2943 -10.8052
rtoes -4.08816
lfemur 0.977764 -3.3125 -23.7194
ltibia 16.9005
lfoot -18.2491 6.15043
ltoes -12.6418
18
root 31.3102 17.3652 6.37511 -148.321 -87.9738 156.103
lowerback 1.36499 -1.58903 -1.75329
upperback -0.741811 -2.14819 3.82029
thorax -1.31715 -1.06082 4.97781
lowerneck -11.1532 -4.42872 -4.87571
upperneck 8.63378 -5.84333 5.75826
head 4.72489 -2.69098 2.1344
rclavicle 7.7526e-015 -3.97569e-015
rhumerus -20.7796 15.822 -78.9101
rradius 69.4081
rwrist 0.62656
rhand -10.7294 -19.7158
rfingers 7.12502
rthumb 15.2812 -49.1313
lclavicle 7.7526e-015 -3.97569e-015
lhumerus -16.6872 -26.2668 101.849
lradius 62.7119
lwrist 43.5956
lhand -14.7867 30.7906
lfingers 7.12502
lthumb 11.3705 60.4624
rfemur -36.5798 -1.64193 14.531
rtibia 19.004
rfoot -4.82234 -10.1484
rtoes -3.34193
lfemur 1.27733 -3.42828 -23.6042
ltibia 17.2268
lfoot -18.4387 5.80004
ltoes -13.0911
19
root 31.1607 17.3593 6.34686 -145.026 -88.2422 152.849
lowerback 1.52212 -1.73754 -1.86113
upperback -0.819357 -2.34863 3.97493
thorax -1.45494 -1.15732 5.21264
lowerneck -11.2102 -4.39352 -4.90177
upperneck 8.65358 -5.77715 5.65458
head 4.73431 -2.66408 2.11069
rclavicle -1.19271e-015 -6.36111e-015
rhumerus -22.5738 14.9392 -79.0233
rradius 70.0234
rwrist 0.555203
rhand -10.8451 -19.8939
rfingers 7.12502
rthumb 15.1697 -49.3178
lclavicle -1.19271e-015 -6.36111e-015
lhumerus -18.3489 -27.5153 102.871
lradius 63.7934
lwrist 43.443
lhand -15.2674 31.8169
lfingers 7.12502
lthumb 10.9068 61.5136
rfemur -36.5472 -1.40128 14.5936
rtibia 19.8507
rfoot -4.04644 -9.51966
rtoes -2.29309
lfemur 1.55986 -3.57526 -23.4261
ltibia 17.5735
lfoot -18.5785 5.44426
ltoes -13.5681
20
root 31.0091 17.3557 6.31684 -142.569 -88.5269 150.434
lowerback 1.58877 -1.88016 -1.92152
upperback -0.838038 -2.54216 4.14871
thorax -1.48139 -1.25413 5.43633
lowerneck -11.2938 -4.35597 -4.87232
upperneck 8.64013 -5.7077 5.50037
head 4.7346 -2.63652 2.06243
rclavicle -1.41137e-014 2.22639e-014
rhumerus -24.2593 14.0064 -79.0361
rradius 70.6278
rwrist 0.410296
rhand -10.9125 -20.0313
rfingers 7.12502
rthumb 15.1048 -49.4602
lclavicle -1.41137e-014 2.22639e-014
lhumerus -19.9112 -28.7138 103.869
lradius 64.8592
lwrist 43.438
lhand -15.9167 33.8259
lfingers 7.12502
lthumb 10.2805 63.5547
rfemur -36.4519 -1.01702 14.6604
rtibia 20.4465
rfoot -2.86749 -8.95945
rtoes -0.83743
lfemur 1.83031 -3.77188 -23.1853
ltibia 17.9479
lfoot -18.6574 5.12
ltoes -14.0674
21
root 30.8558 17.3551 6.28586 -142.268 -88.8253 150.176
lowerback 1.59397 -2.01295 -1.92984
upperback -0.815429 -2.72338 4.35319
thorax -1.43144 -1.3481 5.65894
lowerneck -11.3939 -4.31225 -4.82839
upperneck 8.6136 -5.62729 5.31554
head 4.7318 -2.60476 2.00306
rclavicle -3.08116e-014 1.90833e-014
rhumerus -25.8602 13.0548 -78.9474
rradius 71.2295
rwrist 0.13039
rhand -10.9264 -20.2118
rfingers 7.12502
rthumb 15.0914 -49.6416
lclavicle -3.08116e-014 1.90833e-014
lhumerus -21.388 -29.8221 104.851
lradius 65.9048
lwrist 43.5278
lhand -16.2539 36.4012
lfingers 7.12502
lthumb 9.95523 66.1458
rfemur -36.309 -0.523871 14.7668
rtibia 20.8029
rfoot -1.3139 -8.49553
rtoes 0.984909
lfemur 2.08331 -4.00468 -22.8755
ltibia 18.3586
lfoot -18.6637 4.8382
ltoes -14.6462
22
root 30.7009 17.3581 6.25481 -146.925 -89.1161 154.869
lowerback 1.52761 -2.13332 -1.81336
upperback -0.739338 -2.88747 4.53206
thorax -1.29401 -1.43774 5.77813
lowerneck -11.5143 -4.25845 -4.74384
upperneck 8.57109 -5.54091 5.14952
head 4.72677 -2.56756 1.94324
rclavicle -4.17448e-015 5.725e-014
rhumerus -27.3735 12.0579 -78.8443
rradius 71.8267
rwrist -0.311193
rhand -10.9092 -20.4879
rfingers 7.12502
rthumb 15.108 -49.9165
lclavicle -4.17448e-015 5.725e-014
lhumerus -22.769 -30.8584 105.72
lradius 66.9336
lwrist 43.6451
lhand -16.0651 38.8794
lfingers 7.12502
lthumb 10.1374 68.6151
rfemur -36.1422 0.0414898 14.9437
rtibia 21.009
rfoot 0.417565 -8.19065
rtoes 3.00994
lfemur 2.31882 -4.25502 -22.508
ltibia 18.814
lfoot -18.5893 4.61183
ltoes -15.3387
23
root 30.5444 17.3651 6.22371 -161.854 -89.3619 169.829
lowerback 1.39832 -2.24492 -1.58592
upperback -0.622893 -3.04027 4.68205
thorax -1.08774 -1.52469 5.79858
lowerneck -11.6188 -4.18782 -4.6197
upperneck 8.49541 -5.44062 5.00403
head 4.70792 -2.52164 1.88512
rclavicle 1.37161e-014 1.59028e-015
rhumerus -28.8213 11.047 -78.7441
rradius 72.4305
rwrist -0.923874
rhand -10.9216 -20.9134
rfingers 7.12502
rthumb 15.096 -50.3429
lclavicle 1.37161e-014 1.59028e-015
lhumerus -24.08 -31.7879 106.474
lradius 67.9417
lwrist 43.666
lhand -15.3679 40.3956
lfingers 7.12502
lthumb 10.8099 70.0974
rfemur -35.968 0.63879 15.2059
rtibia 21.1809
rfoot 2.0319 -8.12071
rtoes 4.8213
lfemur 2.53111 -4.48326 -22.0852
ltibia 19.3189
lfoot -18.4238 4.41206
ltoes -16.1863
24
root 30.3868 17.376 6.19266 -190.633 -89.4662 198.634
lowerback 1.18262 -2.34613 -1.27804
upperback -0.45041 -3.18184 4.787
thorax -0.783787 -1.60849 5.71874
lowerneck -11.7174 -4.10624 -4.44938
upperneck 8.37717 -5.33596 4.88927
head 4.6747 -2.47077 1.82986
rclavicle -1.13307e-014 -4.13472e-014
rhumerus -30.175 10.0148 -78.6574
rradius 73.042
rwrist -1.67019
rhand -11.0062 -21.4878
rfingers 7.12502
rthumb 15.0145 -50.9234
lclavicle -1.13307e-014 -4.13472e-014
lhumerus -25.2901 -32.6248 107.08
lradius 68.9267
lwrist 43.518
lhand -14.4634 40.7422
lfingers 7.12502
lthumb 11.6823 70.3965
rfemur -35.8024 1.21683 15.5417
rtibia 21.4381
rfoot 3.2897 -8.28416
rtoes 6.20849
lfemur 2.71124 -4.67496 -21.6435
ltibia 19.8808
lfoot -18.1586 4.22225
ltoes -17.2072
